HIERARCHY
ROOT hip
{
	OFFSET 0.000000 0.000000 0.000000 
	CHANNELS 6 Xposition Yposition Zposition Xrotation Zrotation Yrotation
	JOINT abdomen
	{
		OFFSET 0.000000 3.402643 0.000000 
		CHANNELS 3 Xrotation Zrotation Yrotation
		JOINT chest
		{
			OFFSET 0.000000 8.438565 -0.680529 
			CHANNELS 3 Xrotation Zrotation Yrotation
			JOINT neck
			{
				OFFSET 0.000000 10.207942 -0.272212 
				CHANNELS 3 Xrotation Zrotation Yrotation
				JOINT head
				{
					OFFSET 0.000000 3.130431 0.000000 
					CHANNELS 3 Xrotation Zrotation Yrotation
					End Site
					{
						OFFSET 0.000000 3.130435 0.000000 
					}
				}
			}
			JOINT lCollar
			{
				OFFSET 3.470700 6.669187 -0.816635 
				CHANNELS 3 Yrotation Zrotation Xrotation
				JOINT lShldr
				{
					OFFSET 3.198488 0.000000 0.000000 
					CHANNELS 3 Zrotation Yrotation Xrotation
					JOINT lForeArm
					{
						OFFSET 10.139888 0.000000 0.000000 
						CHANNELS 3 Yrotation Zrotation Xrotation
						JOINT lHand
						{
							OFFSET 8.370511 0.000000 0.000000 
							CHANNELS 3 Zrotation Yrotation Xrotation
							End Site
							{
								OFFSET 4.083176 0.000000 0.000000 
							}
						}
					}
				}
			}
			JOINT rCollar
			{
				OFFSET -3.470700 6.669187 -0.816635 
				CHANNELS 3 Yrotation Zrotation Xrotation
				JOINT rShldr
				{
					OFFSET -3.198488 0.000000 0.000000 
					CHANNELS 3 Zrotation Yrotation Xrotation
					JOINT rForeArm
					{
						OFFSET -10.139888 0.000000 0.000000 
						CHANNELS 3 Yrotation Zrotation Xrotation
						JOINT rHand
						{
							OFFSET -8.370511 0.000000 0.000000 
							CHANNELS 3 Zrotation Yrotation Xrotation
							End Site
							{
								OFFSET -4.083176 0.000000 0.000000 
							}
						}
					}
				}
			}
		}
	}
	JOINT lThigh
	{
		OFFSET 5.308129 -1.633274 1.361059 
		CHANNELS 3 Xrotation Zrotation Yrotation
		JOINT lShin
		{
			OFFSET -2.041588 -20.007561 0.000000 
			CHANNELS 3 Xrotation Zrotation Yrotation
			JOINT lFoot
			{
				OFFSET 0.000000 -19.190928 -1.224953 
				CHANNELS 3 Xrotation Yrotation Zrotation
				End Site
				{
					OFFSET 0.000000 -2.449906 4.627600 
				}
			}
		}
	}
	JOINT rThigh
	{
		OFFSET -5.308129 -1.633274 1.361059 
		CHANNELS 3 Xrotation Zrotation Yrotation
		JOINT rShin
		{
			OFFSET 2.041588 -20.007561 0.000000 
			CHANNELS 3 Xrotation Zrotation Yrotation
			JOINT rFoot
			{
				OFFSET 0.000000 -19.190928 -1.224953 
				CHANNELS 3 Xrotation Yrotation Zrotation
				End Site
				{
					OFFSET 0.000000 -2.449906 4.627600 
				}
			}
		}
	}
}
MOTION
Frames: 14
Frame Time: 0.016667
11.528705 38.487152 70.126694 -2.648489 1.739446 -34.461414 23.221138 4.721682 -4.517190 -15.810907 5.542195 -6.348122 -29.305902 -5.653436 13.798016 24.516937 -0.900084 11.329472 20.964951 -6.077097 -0.109844 -45.904297 -26.702961 7.198079 -124.161652 -0.973683 -61.190571 8.559361 22.861050 2.540615 -10.446165 7.891461 -0.165734 44.921227 -6.636518 17.592842 131.002426 1.532319 -36.638813 0.315982 -3.250694 -0.242524 -58.036930 31.177519 -6.464893 60.519867 0.069246 -2.973401 8.218245 -16.670122 -9.918270 -0.733245 -43.141689 -2.803987 60.332592 -1.607343 2.804455 -4.013300 -25.637701 9.816751 
11.484273 38.533154 71.101952 -2.173799 1.067693 -28.999546 22.811705 4.404935 -3.692502 -15.459283 4.666873 -5.388989 -29.007410 -1.537122 15.064049 23.720951 -0.748903 13.897572 20.921804 -7.031260 -0.127933 -53.225197 -21.225155 18.480917 -125.939316 -0.917024 -65.653046 7.220803 22.414383 1.968544 -10.962420 7.904557 -0.174956 45.205750 -2.855742 16.740488 133.430817 1.540802 -34.859322 2.345315 -3.854443 -0.392331 -60.114292 26.747183 -9.261369 62.162254 0.570489 -3.402955 7.120692 -16.458910 -10.134415 5.702681 -40.546928 -5.942997 59.022465 -1.318871 2.842831 -0.337653 -25.738102 11.555610 
11.439742 38.579151 72.076996 -1.763471 0.349151 -23.545351 22.392561 4.096440 -2.868662 -15.107141 3.777758 -4.432857 -28.618603 2.576899 16.364910 22.929531 -0.561881 16.475422 20.878057 -7.975632 -0.147279 -59.053780 -14.596403 28.573208 -127.698090 -0.725169 -70.116158 5.893960 21.956310 1.402503 -11.477347 7.919767 -0.193609 45.442959 0.928470 15.897276 135.853851 1.627345 -33.076706 4.387010 -4.451560 -0.576090 -61.861496 22.245405 -11.770816 63.784191 1.068294 -3.786390 6.014075 -16.295282 -10.357695 11.698975 -37.714809 -8.582101 57.731724 -1.031204 2.863637 3.288859 -25.732637 13.250426 
11.320383 38.619648 72.882133 -1.294528 0.018751 -16.250000 22.100214 2.655617 -1.250920 -15.256182 2.370943 -2.414083 -28.619633 5.506907 16.838436 22.915136 0.408932 17.881365 20.135069 -8.780918 -0.138892 -57.663422 -8.342370 31.611708 -127.484962 -0.577144 -74.214615 4.971121 20.936129 1.051538 -11.577794 7.468917 -0.184030 43.205070 5.396345 12.165808 137.322708 1.682043 -33.473579 6.413164 -4.762815 -0.818913 -63.950489 17.040535 -14.342930 64.707954 0.706229 -3.955150 5.926805 -17.401567 -10.275463 17.733318 -33.788269 -12.858588 56.509693 -1.157792 2.763372 5.318534 -23.518625 13.994001 
11.200920 38.659935 73.686935 -0.879735 -0.366570 -8.955270 21.765783 1.230443 0.371218 -15.455812 0.966774 -0.390569 -28.586529 8.424751 17.312120 22.912113 1.373478 19.283291 19.402124 -9.576692 -0.130398 -55.954575 -2.174556 34.765079 -127.257378 -0.449911 -78.310043 4.062686 19.912073 0.717215 -11.678054 7.027800 -0.174427 40.648174 9.711664 8.217087 138.783539 1.747462 -33.880299 8.450955 -5.072976 -1.077678 -65.735046 11.758455 -16.643524 65.591530 0.322155 -4.143873 5.869021 -18.517603 -10.152942 23.159103 -29.547050 -16.465193 55.268181 -1.282790 2.657443 7.272504 -21.319286 14.646708 
11.008821 38.549397 74.241844 -0.527955 -0.429590 -1.220742 21.975473 -0.156095 2.548819 -15.744004 -1.678601 2.061379 -27.551477 9.821336 17.054743 23.080130 2.695252 19.632256 19.025225 -8.430075 -0.120147 -53.667885 -1.366099 31.303436 -125.415909 -0.430547 -79.849533 5.763285 20.463709 1.389803 -10.920897 6.191733 -0.154628 34.178001 13.858087 -0.549720 137.225388 1.590330 -37.275558 11.192375 -5.343639 -1.373532 -67.160034 6.309793 -16.969282 65.854538 0.242973 -4.225028 6.475916 -19.488178 -9.798224 26.323414 -24.782730 -20.421350 56.333385 -1.224143 2.713536 6.821057 -17.107187 14.108707 
10.816669 38.438568 74.796478 -0.179134 -0.543355 6.504168 22.136843 -1.557185 4.728263 -16.141697 -4.302948 4.533626 -26.515247 11.220749 16.825348 23.244301 4.011518 19.983212 18.647936 -7.293344 -0.111372 -51.431999 -0.422398 27.871185 -123.575768 -0.455079 -81.382942 7.469754 20.996025 2.075027 -10.153404 5.365913 -0.135812 27.002247 16.945566 -9.887945 135.643433 1.531836 -40.666431 13.924884 -5.611417 -1.679038 -68.551552 0.850042 -17.167469 66.108482 0.155129 -4.292373 7.077431 -20.436186 -9.434119 29.023775 -19.851070 -23.974461 57.378185 -1.166782 2.789287 6.421139 -12.937096 13.607800 
10.588676 38.121883 75.158195 -0.187086 -0.458134 12.217181 23.329481 -1.675665 7.327351 -16.213045 -7.830079 7.146770 -24.160088 12.280613 16.833824 24.477737 4.024105 20.208565 19.042759 -6.184215 -0.092824 -50.602909 -0.910479 24.040300 -123.513832 -0.481515 -82.968781 7.147118 18.917978 1.733297 -10.517467 4.214420 -0.135491 16.809784 22.766066 -18.263945 126.794563 1.965850 -34.801380 10.869044 -6.642643 -1.558664 -69.784241 -1.894463 -14.908725 66.895607 0.243682 -4.353436 8.065313 -21.468843 -9.014824 29.403852 -16.709341 -26.518932 59.231251 -1.074436 2.712088 4.742928 -11.495217 13.161872 
10.360806 37.805359 75.520111 -0.185608 -0.362363 17.930058 24.511118 -1.847002 9.917295 -16.453896 -11.331043 9.790617 -21.793007 13.337336 16.895914 25.707880 4.027425 20.433916 19.427069 -5.074817 -0.073387 -49.737610 -1.330137 20.210196 -123.441544 -0.493066 -84.553085 6.829728 16.837475 1.414960 -10.881004 3.064771 -0.144165 5.369066 27.008543 -27.999090 117.930756 1.527154 -28.908606 7.790480 -7.658480 -1.376873 -71.141281 -4.579900 -12.594257 67.692513 0.312467 -4.426528 9.070726 -22.471012 -8.567496 29.612679 -13.554880 -29.020262 61.082874 -0.986307 2.666780 3.073934 -10.076426 12.736113 
10.221002 37.602814 76.006592 -0.374510 -0.009148 20.478516 25.300846 -2.052720 12.136746 -15.718072 -13.082473 11.893929 -18.898794 14.768440 17.227184 26.331615 3.333363 20.769545 19.513468 -4.993564 -0.091696 -49.606434 1.625278 18.946497 -126.018646 -0.454644 -85.777092 2.417744 15.859056 0.116872 -12.299645 1.908292 -0.152903 -6.653516 33.901493 -34.057728 92.705345 8.294779 2.248978 -4.195108 -4.610687 -0.248257 -71.263344 -4.568587 -9.918570 68.573746 0.322378 -4.377223 9.334902 -23.641205 -8.245319 29.893303 -12.344412 -30.866835 60.114735 -0.869060 2.781377 0.694119 -15.906628 11.787041 
10.081224 37.400566 76.493240 -0.544377 0.350511 23.027843 26.084835 -2.289750 14.337508 -15.047979 -14.850687 13.979621 -15.979805 16.189777 17.635839 26.946791 2.642473 21.098015 19.608919 -4.905897 -0.119984 -49.540947 4.575352 17.689171 -128.577301 -0.363079 -86.978600 -1.947582 14.778062 -1.081566 -13.718265 0.759213 -0.189853 -20.536694 39.457130 -42.311741 67.669510 0.949469 33.240772 -16.055290 -1.418783 0.225394 -71.390991 -4.569028 -7.243819 69.445320 0.312154 -4.340838 9.607030 -24.832195 -7.883070 30.148161 -11.124232 -32.712196 59.147518 -0.722686 2.890297 -1.895632 -21.712915 10.505406 
9.961639 37.408882 77.090096 -0.457572 0.521229 25.225803 26.236927 -3.085426 14.953646 -15.043536 -14.760652 14.946429 -16.228624 17.536318 16.409908 26.506121 2.989184 20.146177 19.684996 -5.107952 -0.138240 -50.614517 7.830960 19.387060 -130.830353 -0.426433 -85.138367 -1.868593 15.394581 -1.079279 -13.268356 1.464688 -0.123773 -28.331308 40.859447 -48.643055 51.225594 2.893321 50.189747 -7.780862 -3.668493 0.057820 -71.185318 -4.393668 -5.685994 69.978691 0.400447 -4.385905 9.493771 -24.639971 -7.739445 31.287352 -9.766379 -35.718342 55.825062 -0.468626 2.807326 -6.510696 -27.982687 7.834919 
9.841941 37.417191 77.686653 -0.368110 0.702132 27.424189 26.379597 -3.885772 15.563544 -15.049461 -14.676241 15.912978 -16.509193 18.880724 15.171898 26.054169 3.339097 19.194046 19.761827 -5.296988 -0.147315 -51.608425 11.118678 21.028954 -133.074478 -0.569497 -83.291000 -1.789331 16.011120 -1.075248 -12.829522 2.163618 -0.066974 -36.380173 41.577934 -55.247616 34.962742 -0.023009 66.947395 0.510431 -5.875446 -0.431854 -70.963722 -4.237843 -4.148338 70.491798 0.487990 -4.448446 9.387116 -24.442617 -7.574884 32.333199 -8.359911 -38.678444 52.531708 -0.215067 2.701332 -11.762101 -33.985573 4.425720 
9.643551 37.420444 78.072701 0.175781 0.000000 29.531261 26.161840 -3.570463 14.726479 -14.955646 -14.760652 14.946429 -18.769287 17.687553 13.863629 25.620533 3.860821 18.158178 19.477884 -5.937533 -0.138364 -53.948521 9.418028 22.391720 -132.511566 -0.504243 -83.127136 1.206312 16.756248 -0.193328 -13.980779 1.825191 -0.113969 -33.616314 43.805672 -56.444351 41.408531 1.458523 48.634132 0.270591 -8.513579 -0.523384 -71.734299 -4.325639 -3.620067 70.755203 0.566114 -4.398484 9.815492 -24.476095 -7.503810 31.990519 -7.012540 -40.711193 51.895569 -0.478847 2.560752 -11.136780 -34.858894 4.843701 
